<?xml version="1.0" ?>
<!-- Uploaded to: SVG Repo, www.svgrepo.com, Generator: SVG Repo Mixer Tools -->
<svg width="800px" height="800px" viewBox="0 0 32 32" xmlns="http://www.w3.org/2000/svg">
<defs>
<style>.cls-1{fill:#231f20;}</style>
</defs>
<g id="notification">
<path class="cls-1" d="M23,25H9a3,3,0,0,1-3-3v-9.1A8.92,8.92,0,0,1,14.91,4h2.18A8.92,8.92,0,0,1,26,12.91V22A3,3,0,0,1,23,25ZM14.91,6A6.92,6.92,0,0,0,8,12.91V22a1,1,0,0,0,1,1H23a1,1,0,0,0,1-1v-9.1A6.92,6.92,0,0,0,17.09,6Z"/>
<path class="cls-1" d="M20,30H12a1,1,0,0,1,0-2h8a1,1,0,0,1,0,2Z"/>
</g>
</svg>